<svg width="80" height="80" viewBox="0 0 80 80" fill="none" xmlns="http://www.w3.org/2000/svg">
<path d="M56.3883 30.2267C52.3049 11.01 27.9966 11.185 23.4966 30.0383C6.94826 33.4383 4.9066 53.1917 16.4666 61.2667C19.3216 63.2617 22.8083 64.145 26.2916 64.145H54.8166C56.3516 64.145 57.8966 64.0067 59.3666 63.5683C75.5299 58.755 74.6333 33.175 56.5166 30.2133L56.3883 30.2267Z" stroke="black" stroke-width="4" stroke-linecap="round" stroke-linejoin="round"/>
<path d="M31.95 46.3367C35.7583 50.4917 44.1883 50.55 48.0133 46.4467" stroke="black" stroke-width="4" stroke-linecap="round" stroke-linejoin="round"/>
<path d="M32.6717 44.9434C32.2684 45.9834 31.6751 46.9517 30.5601 47.73M47.2134 44.9434C47.6167 45.9834 48.2117 46.9517 49.3267 47.73" stroke="black" stroke-width="4" stroke-linecap="round" stroke-linejoin="round"/>
</svg>
