<svg width="155" height="178" viewBox="0 0 155 178" fill="none" xmlns="http://www.w3.org/2000/svg">
<g clip-path="url(#clip0_29_186)">
<path d="M155 0H0V178H155V0Z" fill="#3C2A1E"/>
<path d="M14.506 143.087V144.095C13.738 144.095 13.114 144.207 12.634 144.431C12.186 144.623 11.85 144.975 11.626 145.487C11.434 145.967 11.338 146.655 11.338 147.551V156.479C11.338 157.471 11.45 158.399 11.674 159.263C11.93 160.095 12.442 160.767 13.21 161.279C14.01 161.759 15.226 161.999 16.858 161.999C18.458 161.999 19.882 161.903 21.13 161.711C22.41 161.519 23.482 161.263 24.346 160.943V161.759C23.738 162.047 22.938 162.335 21.946 162.623C20.954 162.879 19.882 163.103 18.73 163.295C17.578 163.455 16.442 163.535 15.322 163.535C13.946 163.535 12.746 163.391 11.722 163.103C10.698 162.783 9.85 162.367 9.178 161.855C8.282 161.183 7.674 160.367 7.354 159.407C7.034 158.415 6.874 157.087 6.874 155.423V147.551C6.874 146.655 6.746 145.967 6.49 145.487C6.266 144.975 5.882 144.623 5.338 144.431C4.826 144.207 4.122 144.095 3.226 144.095V143.087C3.77 143.119 4.618 143.167 5.77 143.231C6.954 143.263 8.074 143.279 9.13 143.279C10.186 143.279 11.21 143.263 12.202 143.231C13.226 143.167 13.994 143.119 14.506 143.087ZM32.698 143.087V144.047C31.61 144.079 30.778 144.207 30.202 144.431C29.658 144.623 29.29 145.007 29.098 145.583C28.906 146.127 28.81 146.991 28.81 148.175V171.983C28.81 173.135 28.906 173.999 29.098 174.575C29.29 175.151 29.658 175.535 30.202 175.727C30.778 175.919 31.61 176.047 32.698 176.111V177.071C32.026 177.007 31.146 176.975 30.058 176.975C28.97 176.943 27.802 176.927 26.554 176.927C25.274 176.927 23.978 176.943 22.666 176.975C21.386 176.975 20.33 177.007 19.498 177.071V176.111C20.842 176.047 21.866 175.919 22.57 175.727C23.274 175.535 23.738 175.151 23.962 174.575C24.218 173.999 24.346 173.135 24.346 171.983V148.175C24.346 146.991 24.25 146.127 24.058 145.583C23.866 145.007 23.482 144.623 22.906 144.431C22.362 144.207 21.546 144.079 20.458 144.047V143.087C21.13 143.119 22.01 143.151 23.098 143.183C24.186 143.215 25.354 143.231 26.602 143.231C27.722 143.231 28.826 143.215 29.914 143.183C31.034 143.151 31.962 143.119 32.698 143.087ZM42.6805 177.407C41.3685 177.407 40.2325 177.167 39.2725 176.687C38.3125 176.175 37.5765 175.471 37.0645 174.575C36.5845 173.679 36.3445 172.639 36.3445 171.455C36.3445 170.047 36.6645 168.895 37.3045 167.999C37.9765 167.103 38.8245 166.383 39.8485 165.839C40.8725 165.295 41.9445 164.847 43.0645 164.495C44.2165 164.111 45.3045 163.759 46.3285 163.439C47.3525 163.087 48.1845 162.687 48.8245 162.239C49.4965 161.791 49.8325 161.199 49.8325 160.463V157.487C49.8325 156.143 49.6245 155.119 49.2085 154.415C48.8245 153.711 48.2965 153.247 47.6245 153.023C46.9525 152.767 46.2005 152.639 45.3685 152.639C44.5685 152.639 43.7045 152.751 42.7765 152.975C41.8805 153.199 41.1605 153.663 40.6165 154.367C41.2245 154.495 41.7525 154.815 42.2005 155.327C42.6485 155.839 42.8725 156.495 42.8725 157.295C42.8725 158.095 42.6165 158.735 42.1045 159.215C41.5925 159.663 40.9365 159.887 40.1365 159.887C39.2085 159.887 38.5205 159.599 38.0725 159.023C37.6565 158.415 37.4485 157.743 37.4485 157.007C37.4485 156.175 37.6565 155.503 38.0725 154.991C38.4885 154.479 39.0165 153.999 39.6565 153.551C40.3925 153.039 41.3365 152.607 42.4885 152.255C43.6725 151.871 45.0005 151.679 46.4725 151.679C47.7845 151.679 48.9045 151.839 49.8325 152.159C50.7605 152.447 51.5285 152.879 52.1365 153.455C52.9685 154.223 53.5125 155.167 53.7685 156.287C54.0245 157.375 54.1525 158.687 54.1525 160.223V173.567C54.1525 174.367 54.2645 174.943 54.4885 175.295C54.7445 175.647 55.1285 175.823 55.6405 175.823C55.9925 175.823 56.3285 175.743 56.6485 175.583C56.9685 175.423 57.3525 175.167 57.8005 174.815L58.3285 175.631C57.6565 176.143 57.0165 176.575 56.4085 176.927C55.8005 177.247 54.9845 177.407 53.9605 177.407C53.0325 177.407 52.2645 177.247 51.6565 176.927C51.0485 176.607 50.5845 176.143 50.2645 175.535C49.9765 174.895 49.8325 174.095 49.8325 173.135C48.9685 174.575 47.9285 175.647 46.7125 176.351C45.5285 177.055 44.1845 177.407 42.6805 177.407ZM44.4085 175.487C45.4645 175.487 46.4405 175.183 47.3365 174.575C48.2645 173.967 49.0965 173.055 49.8325 171.839V162.431C49.4485 162.975 48.8885 163.439 48.1525 163.823C47.4165 164.175 46.6165 164.543 45.7525 164.927C44.8885 165.279 44.0565 165.711 43.2565 166.223C42.4885 166.703 41.8485 167.343 41.3365 168.143C40.8245 168.943 40.5685 169.983 40.5685 171.263C40.5685 172.543 40.9045 173.567 41.5765 174.335C42.2805 175.103 43.2245 175.487 44.4085 175.487ZM97.4988 152.399V153.407C96.1868 153.407 95.2428 153.647 94.6668 154.127C94.1228 154.607 93.8508 155.519 93.8508 156.863V172.607C93.8508 173.951 94.1228 174.863 94.6668 175.343C95.2428 175.823 96.1868 176.063 97.4988 176.063V177.071C97.1468 177.039 96.6508 177.023 96.0108 177.023C95.3708 176.991 94.6668 176.959 93.8988 176.927C93.1628 176.895 92.4428 176.879 91.7388 176.879C90.5548 176.879 89.4188 176.911 88.3308 176.975C87.2428 177.039 86.1708 177.071 85.1148 177.071C84.0588 177.071 82.9708 177.039 81.8508 176.975C80.7308 176.911 79.6428 176.879 78.5868 176.879C77.5308 176.879 76.4588 176.911 75.3708 176.975C74.3148 177.039 73.2748 177.071 72.2508 177.071C71.5788 177.071 70.8748 177.055 70.1388 177.023C69.4348 176.991 68.6988 176.959 67.9308 176.927C67.1628 176.895 66.3628 176.879 65.5308 176.879C64.8268 176.879 64.0908 176.895 63.3228 176.927C62.5868 176.959 61.8988 176.991 61.2588 177.023C60.6508 177.023 60.1548 177.039 59.7708 177.071V176.063C61.0828 176.063 62.0108 175.823 62.5548 175.343C63.1308 174.863 63.4188 173.951 63.4188 172.607V156.863C63.4188 155.519 63.1308 154.607 62.5548 154.127C62.0108 153.647 61.0828 153.407 59.7708 153.407V152.399C60.3148 152.431 61.1468 152.479 62.2668 152.543C63.4188 152.575 64.4908 152.591 65.4828 152.591C66.5068 152.591 67.4668 152.575 68.3628 152.543C69.2908 152.479 69.9788 152.431 70.4268 152.399V153.407C69.4348 153.407 68.7308 153.647 68.3148 154.127C67.9308 154.607 67.7388 155.519 67.7388 156.863V172.607C67.7388 173.951 67.9948 174.863 68.5068 175.343C69.0188 175.823 69.9148 176.063 71.1948 176.063H73.3068C74.4588 176.063 75.2748 175.823 75.7548 175.343C76.2348 174.863 76.4748 173.951 76.4748 172.607V156.863C76.4748 155.519 76.2668 154.607 75.8508 154.127C75.4668 153.647 74.7788 153.407 73.7868 153.407V152.399C74.2348 152.431 74.9228 152.479 75.8508 152.543C76.8108 152.575 77.7388 152.591 78.6348 152.591C79.5628 152.591 80.4908 152.575 81.4188 152.543C82.3468 152.479 83.0348 152.431 83.4828 152.399V153.407C82.4908 153.407 81.7868 153.647 81.3708 154.127C80.9868 154.607 80.7948 155.519 80.7948 156.863V172.607C80.7948 173.951 81.0348 174.863 81.5148 175.343C81.9948 175.823 82.8108 176.063 83.9628 176.063H86.3628C87.5148 176.063 88.3308 175.823 88.8108 175.343C89.2908 174.863 89.5308 173.951 89.5308 172.607V156.863C89.5308 155.519 89.3228 154.607 88.9068 154.127C88.5228 153.647 87.8348 153.407 86.8428 153.407V152.399C87.2908 152.431 87.9788 152.479 88.9068 152.543C89.8348 152.575 90.7948 152.591 91.7868 152.591C92.8108 152.591 93.8828 152.575 95.0028 152.543C96.1228 152.479 96.9548 152.431 97.4988 152.399ZM121.391 151.679C122.511 151.679 123.295 151.951 123.743 152.495C124.223 153.039 124.463 153.647 124.463 154.319C124.463 155.023 124.239 155.631 123.791 156.143C123.343 156.623 122.719 156.863 121.919 156.863C121.343 156.863 120.847 156.735 120.431 156.479C120.015 156.223 119.695 155.871 119.471 155.423C119.247 154.943 119.135 154.399 119.135 153.791C119.135 153.727 119.135 153.663 119.135 153.599C119.135 153.535 119.135 153.487 119.135 153.455C118.783 153.615 118.463 153.903 118.175 154.319C117.919 154.735 117.647 155.295 117.359 155.999C117.071 156.703 116.735 157.567 116.351 158.591C116.031 159.455 115.663 160.287 115.247 161.087C114.831 161.887 114.255 162.559 113.519 163.103C112.783 163.647 111.775 163.999 110.495 164.159L110.927 163.823C112.847 163.759 114.527 163.967 115.967 164.447C117.439 164.927 118.591 165.823 119.423 167.135C119.967 167.967 120.415 168.991 120.767 170.207C121.151 171.423 121.551 172.495 121.967 173.423C122.319 174.223 122.719 174.847 123.167 175.295C123.647 175.711 124.383 175.967 125.375 176.063V177.071C124.863 177.167 124.351 177.247 123.839 177.311C123.327 177.375 122.847 177.407 122.399 177.407C120.959 177.407 119.903 177.071 119.231 176.399C118.559 175.695 118.047 174.751 117.695 173.567C117.535 173.023 117.343 172.367 117.119 171.599C116.895 170.799 116.623 169.999 116.303 169.199C115.983 168.367 115.599 167.647 115.151 167.039C114.447 166.047 113.535 165.407 112.415 165.119C111.295 164.799 109.839 164.671 108.047 164.735V163.919C109.807 163.823 111.167 163.535 112.127 163.055C113.087 162.543 113.823 161.839 114.335 160.943C114.847 160.047 115.311 158.991 115.727 157.775C116.047 156.879 116.399 155.967 116.783 155.039C117.167 154.079 117.711 153.279 118.415 152.639C119.151 151.999 120.143 151.679 121.391 151.679ZM111.407 152.399V153.407C110.255 153.407 109.439 153.647 108.959 154.127C108.479 154.607 108.239 155.519 108.239 156.863V172.607C108.239 173.951 108.479 174.863 108.959 175.343C109.439 175.823 110.255 176.063 111.407 176.063V177.071C110.895 177.039 110.127 177.007 109.103 176.975C108.079 176.911 107.039 176.879 105.983 176.879C104.927 176.879 103.839 176.911 102.719 176.975C101.631 177.007 100.815 177.039 100.271 177.071V176.063C101.583 176.063 102.511 175.823 103.055 175.343C103.631 174.863 103.919 173.951 103.919 172.607V156.863C103.919 155.519 103.631 154.607 103.055 154.127C102.511 153.647 101.583 153.407 100.271 153.407V152.399C100.815 152.431 101.631 152.479 102.719 152.543C103.839 152.575 104.927 152.591 105.983 152.591C107.039 152.591 108.079 152.575 109.103 152.543C110.127 152.479 110.895 152.431 111.407 152.399ZM134.556 177.407C133.244 177.407 132.108 177.167 131.148 176.687C130.188 176.175 129.452 175.471 128.94 174.575C128.46 173.679 128.22 172.639 128.22 171.455C128.22 170.047 128.54 168.895 129.18 167.999C129.852 167.103 130.7 166.383 131.724 165.839C132.748 165.295 133.82 164.847 134.94 164.495C136.092 164.111 137.18 163.759 138.204 163.439C139.228 163.087 140.06 162.687 140.7 162.239C141.372 161.791 141.708 161.199 141.708 160.463V157.487C141.708 156.143 141.5 155.119 141.084 154.415C140.7 153.711 140.172 153.247 139.5 153.023C138.828 152.767 138.076 152.639 137.244 152.639C136.444 152.639 135.58 152.751 134.652 152.975C133.756 153.199 133.036 153.663 132.492 154.367C133.1 154.495 133.628 154.815 134.076 155.327C134.524 155.839 134.748 156.495 134.748 157.295C134.748 158.095 134.492 158.735 133.98 159.215C133.468 159.663 132.812 159.887 132.012 159.887C131.084 159.887 130.396 159.599 129.948 159.023C129.532 158.415 129.324 157.743 129.324 157.007C129.324 156.175 129.532 155.503 129.948 154.991C130.364 154.479 130.892 153.999 131.532 153.551C132.268 153.039 133.212 152.607 134.364 152.255C135.548 151.871 136.876 151.679 138.348 151.679C139.66 151.679 140.78 151.839 141.708 152.159C142.636 152.447 143.404 152.879 144.012 153.455C144.844 154.223 145.388 155.167 145.644 156.287C145.9 157.375 146.028 158.687 146.028 160.223V173.567C146.028 174.367 146.14 174.943 146.364 175.295C146.62 175.647 147.004 175.823 147.516 175.823C147.868 175.823 148.204 175.743 148.524 175.583C148.844 175.423 149.228 175.167 149.676 174.815L150.204 175.631C149.532 176.143 148.892 176.575 148.284 176.927C147.676 177.247 146.86 177.407 145.836 177.407C144.908 177.407 144.14 177.247 143.532 176.927C142.924 176.607 142.46 176.143 142.14 175.535C141.852 174.895 141.708 174.095 141.708 173.135C140.844 174.575 139.804 175.647 138.588 176.351C137.404 177.055 136.06 177.407 134.556 177.407ZM136.284 175.487C137.34 175.487 138.316 175.183 139.212 174.575C140.14 173.967 140.972 173.055 141.708 171.839V162.431C141.324 162.975 140.764 163.439 140.028 163.823C139.292 164.175 138.492 164.543 137.628 164.927C136.764 165.279 135.932 165.711 135.132 166.223C134.364 166.703 133.724 167.343 133.212 168.143C132.7 168.943 132.444 169.983 132.444 171.263C132.444 172.543 132.78 173.567 133.452 174.335C134.156 175.103 135.1 175.487 136.284 175.487Z" fill="#F9F3E9"/>
<path opacity="0.8" d="M97.83 27.0979C97.83 22.4803 95.43 10.5125 92.62 10.5125C89.81 10.5125 87.66 22.4699 87.66 27.0979C87.66 31.7259 97.83 31.7154 97.83 27.0979Z" fill="#F9F3E9"/>
<path opacity="0.8" d="M68.04 27.0979C68.04 22.4803 65.64 10.5125 62.83 10.5125C60.02 10.5125 57.87 22.4699 57.87 27.0979C57.87 31.7259 68.04 31.7154 68.04 27.0979Z" fill="#F9F3E9"/>
<path opacity="0.8" d="M83.23 19.2553C83.23 14.6378 80.83 2.66992 78.02 2.66992C75.21 2.66992 73.06 14.6273 73.06 19.2553C73.06 23.8833 83.23 23.8729 83.23 19.2553Z" fill="#F9F3E9"/>
<mask id="mask0_29_186" style="mask-type:luminance" maskUnits="userSpaceOnUse" x="26" y="39" width="104" height="94">
<path d="M129.04 39.0867H26.66V132.401H129.04V39.0867Z" fill="white"/>
</mask>
<g mask="url(#mask0_29_186)">
<path d="M78.07 139.039C105.889 139.039 128.44 110.134 128.44 74.4772C128.44 38.8208 105.889 9.91553 78.07 9.91553C50.2514 9.91553 27.7 38.8208 27.7 74.4772C27.7 110.134 50.2514 139.039 78.07 139.039Z" fill="#F9F3E9"/>
</g>
</g>
<defs>
<clipPath id="clip0_29_186">
<rect width="155" height="178" fill="white"/>
</clipPath>
</defs>
</svg>
